<?xml version="1.0" encoding="UTF-8"?>
<svg xmlns="http://www.w3.org/2000/svg" xmlns:xlink="http://www.w3.org/1999/xlink" width="40px" height="40px" viewBox="0 0 40 40" version="1.1">
<g id="surface1">
<path style=" stroke:none;fill-rule:nonzero;fill:rgb(0%,0%,0%);fill-opacity:1;" d="M 27.515625 15.488281 C 27.921875 15.152344 28.15625 14.660156 28.15625 14.140625 C 28.15625 13.175781 27.371094 12.394531 26.40625 12.394531 C 25.933594 12.394531 25.488281 12.582031 25.171875 12.90625 L 12.617188 24.992188 C 12.238281 25.324219 12.019531 25.804688 12.019531 26.300781 C 12.019531 27.265625 12.804688 28.050781 13.769531 28.050781 C 14.277344 28.050781 14.753906 27.828125 15.089844 27.441406 Z M 14.132812 26.601562 C 14.078125 26.667969 13.960938 26.777344 13.769531 26.777344 C 13.503906 26.777344 13.289062 26.5625 13.289062 26.300781 C 13.289062 26.121094 13.394531 26 13.476562 25.929688 L 26.066406 13.804688 C 26.15625 13.714844 26.277344 13.664062 26.40625 13.664062 C 26.667969 13.664062 26.882812 13.878906 26.882812 14.140625 C 26.882812 14.332031 26.769531 14.449219 26.667969 14.539062 L 14.183594 26.546875 C 14.167969 26.5625 14.152344 26.582031 14.132812 26.601562 Z M 14.132812 26.601562 "/>
<path style=" stroke:none;fill-rule:nonzero;fill:rgb(0%,0%,0%);fill-opacity:1;" d="M 32.066406 23.9375 C 31.199219 23.9375 30.347656 24.078125 29.535156 24.351562 L 25.183594 20 L 29.621094 15.5625 C 30.355469 15.78125 31.117188 15.894531 31.890625 15.894531 C 34.011719 15.894531 36.003906 15.070312 37.5 13.574219 C 39.769531 11.304688 40.453125 7.914062 39.238281 4.945312 C 39.15625 4.746094 38.984375 4.605469 38.773438 4.5625 C 38.566406 4.519531 38.351562 4.585938 38.199219 4.734375 L 34.53125 8.402344 L 31.582031 8.246094 L 31.425781 5.300781 L 35.097656 1.632812 C 35.246094 1.480469 35.3125 1.265625 35.269531 1.054688 C 35.226562 0.847656 35.082031 0.671875 34.886719 0.59375 C 33.929688 0.203125 32.917969 0.00390625 31.878906 0.00390625 C 29.753906 0.00390625 27.757812 0.828125 26.257812 2.332031 C 24.035156 4.550781 23.34375 7.800781 24.433594 10.71875 L 20.167969 14.984375 L 15.566406 10.378906 C 16.386719 7.605469 15.625 4.550781 13.574219 2.5 C 12.070312 1 10.074219 0.171875 7.953125 0.171875 C 6.914062 0.171875 5.902344 0.371094 4.945312 0.761719 C 4.746094 0.839844 4.601562 1.015625 4.5625 1.226562 C 4.519531 1.433594 4.585938 1.648438 4.734375 1.800781 L 8.402344 5.46875 L 8.246094 8.414062 L 5.300781 8.574219 L 1.632812 4.902344 C 1.480469 4.753906 1.265625 4.691406 1.054688 4.730469 C 0.847656 4.773438 0.671875 4.917969 0.59375 5.113281 C -0.621094 8.085938 0.0625 11.472656 2.332031 13.742188 C 3.828125 15.238281 5.820312 16.0625 7.941406 16.0625 C 8.898438 16.0625 9.832031 15.894531 10.71875 15.566406 L 15.15625 20 L 10.636719 24.515625 C 9.820312 24.246094 8.972656 24.105469 8.109375 24.105469 C 5.988281 24.105469 3.996094 24.929688 2.5 26.425781 C 0.230469 28.695312 -0.453125 32.082031 0.761719 35.054688 C 0.84375 35.253906 1.015625 35.394531 1.226562 35.4375 C 1.433594 35.480469 1.648438 35.414062 1.800781 35.265625 L 5.46875 31.597656 L 8.414062 31.753906 L 8.570312 34.699219 L 4.902344 38.367188 C 4.753906 38.519531 4.6875 38.734375 4.730469 38.945312 C 4.773438 39.152344 4.917969 39.324219 5.113281 39.40625 C 6.070312 39.796875 7.082031 39.996094 8.121094 39.996094 C 10.246094 39.996094 12.238281 39.167969 13.742188 37.667969 C 15.875 35.535156 16.601562 32.382812 15.648438 29.535156 L 20.167969 25.015625 L 24.515625 29.363281 C 23.570312 32.203125 24.3125 35.382812 26.429688 37.5 C 27.929688 39 29.921875 39.828125 32.046875 39.828125 C 33.085938 39.828125 34.097656 39.628906 35.054688 39.238281 C 35.253906 39.15625 35.394531 38.984375 35.4375 38.773438 C 35.480469 38.566406 35.414062 38.351562 35.265625 38.199219 L 31.597656 34.53125 L 31.753906 31.585938 L 34.699219 31.425781 L 38.367188 35.097656 C 38.519531 35.246094 38.734375 35.308594 38.945312 35.269531 C 39.152344 35.226562 39.324219 35.082031 39.40625 34.886719 C 40.621094 31.914062 39.9375 28.527344 37.667969 26.257812 C 36.171875 24.761719 34.183594 23.9375 32.066406 23.9375 Z M 11.324219 14.371094 C 11.203125 14.246094 11.039062 14.183594 10.875 14.183594 C 10.789062 14.183594 10.703125 14.199219 10.621094 14.234375 C 9.773438 14.605469 8.871094 14.792969 7.941406 14.792969 C 6.160156 14.792969 4.488281 14.101562 3.230469 12.84375 C 1.5625 11.171875 0.914062 8.78125 1.464844 6.535156 L 4.601562 9.675781 C 4.730469 9.800781 4.898438 9.871094 5.085938 9.859375 L 8.886719 9.65625 C 9.210938 9.640625 9.472656 9.378906 9.488281 9.054688 L 9.691406 5.253906 C 9.699219 5.074219 9.632812 4.898438 9.503906 4.773438 L 6.367188 1.632812 C 6.886719 1.507812 7.414062 1.445312 7.953125 1.445312 C 9.738281 1.445312 11.414062 2.140625 12.675781 3.402344 C 14.476562 5.203125 15.09375 7.929688 14.242188 10.34375 C 14.160156 10.574219 14.21875 10.832031 14.390625 11.003906 L 19.273438 15.886719 L 16.054688 19.101562 Z M 14.324219 29.601562 C 15.300781 32.082031 14.71875 34.894531 12.84375 36.769531 C 11.582031 38.03125 9.90625 38.726562 8.125 38.726562 C 7.585938 38.726562 7.054688 38.660156 6.539062 38.535156 L 9.671875 35.398438 C 9.800781 35.269531 9.867188 35.09375 9.859375 34.914062 L 9.65625 31.113281 C 9.640625 30.789062 9.378906 30.53125 9.054688 30.515625 L 5.253906 30.3125 C 5.078125 30.304688 4.898438 30.367188 4.773438 30.496094 L 1.632812 33.632812 C 1.085938 31.386719 1.730469 28.996094 3.398438 27.328125 C 4.65625 26.070312 6.328125 25.378906 8.109375 25.378906 C 8.875 25.378906 9.625 25.507812 10.347656 25.761719 C 10.378906 25.773438 10.40625 25.785156 10.4375 25.800781 L 10.566406 25.855469 C 10.804688 25.945312 11.066406 25.886719 11.246094 25.710938 L 16.503906 20.449219 L 20.621094 16.335938 L 25.632812 11.324219 C 25.816406 11.136719 25.871094 10.859375 25.765625 10.621094 C 24.660156 8.082031 25.207031 5.183594 27.160156 3.230469 C 28.417969 1.972656 30.097656 1.277344 31.878906 1.277344 C 32.417969 1.277344 32.949219 1.339844 33.464844 1.464844 L 30.328125 4.601562 C 30.199219 4.730469 30.132812 4.90625 30.140625 5.085938 L 30.34375 8.886719 C 30.363281 9.210938 30.621094 9.46875 30.945312 9.488281 L 34.746094 9.6875 C 34.925781 9.699219 35.101562 9.632812 35.230469 9.503906 L 38.367188 6.367188 C 38.917969 8.613281 38.269531 11.003906 36.601562 12.671875 C 35.34375 13.929688 33.671875 14.621094 31.894531 14.621094 C 31.128906 14.621094 30.378906 14.492188 29.660156 14.238281 C 29.425781 14.15625 29.167969 14.214844 28.996094 14.390625 L 21.796875 21.589844 L 19.71875 23.664062 C 19.71875 23.664062 19.71875 23.667969 19.71875 23.667969 L 14.464844 28.921875 C 14.285156 29.097656 14.230469 29.367188 14.324219 29.601562 Z M 38.535156 33.464844 L 35.398438 30.328125 C 35.269531 30.199219 35.09375 30.132812 34.917969 30.140625 L 31.117188 30.34375 C 30.789062 30.363281 30.53125 30.621094 30.515625 30.945312 L 30.3125 34.746094 C 30.300781 34.925781 30.371094 35.101562 30.496094 35.230469 L 33.632812 38.367188 C 33.117188 38.492188 32.585938 38.554688 32.046875 38.554688 C 30.265625 38.554688 28.589844 37.859375 27.328125 36.601562 C 25.523438 34.796875 24.910156 32.070312 25.761719 29.652344 C 25.773438 29.621094 25.785156 29.59375 25.800781 29.5625 L 25.855469 29.433594 C 25.945312 29.199219 25.886719 28.933594 25.710938 28.753906 L 21.070312 24.113281 L 24.285156 20.898438 L 28.921875 25.535156 C 29.101562 25.714844 29.371094 25.769531 29.601562 25.675781 C 30.390625 25.367188 31.21875 25.210938 32.066406 25.210938 C 33.84375 25.210938 35.515625 25.902344 36.769531 27.15625 C 38.441406 28.828125 39.085938 31.21875 38.535156 33.464844 Z M 38.535156 33.464844 "/>
</g>
</svg>
